<?xml version="1.0" encoding="UTF-8"?>
<svg xmlns="http://www.w3.org/2000/svg" version="1.1" width="100" height="100" viewBox="0 0 100 100"><rect x="0" y="0" width="100" height="100" fill="#ffffff"/><g transform="scale(3.448)"><g transform="translate(0,0)"><path fill-rule="evenodd" d="M9 0L9 1L8 1L8 3L9 3L9 4L8 4L8 8L6 8L6 9L7 9L7 10L5 10L5 9L4 9L4 8L3 8L3 9L2 9L2 8L0 8L0 9L1 9L1 10L0 10L0 17L1 17L1 18L0 18L0 19L1 19L1 18L2 18L2 19L4 19L4 20L3 20L3 21L5 21L5 20L6 20L6 21L8 21L8 23L9 23L9 25L8 25L8 26L9 26L9 27L8 27L8 29L11 29L11 28L12 28L12 29L14 29L14 28L12 28L12 24L14 24L14 25L13 25L13 27L15 27L15 28L17 28L17 29L18 29L18 26L17 26L17 27L15 27L15 26L14 26L14 25L15 25L15 24L14 24L14 22L15 22L15 21L14 21L14 20L16 20L16 19L17 19L17 20L19 20L19 19L17 19L17 18L18 18L18 17L19 17L19 14L20 14L20 25L19 25L19 26L21 26L21 25L22 25L22 26L24 26L24 27L25 27L25 26L26 26L26 27L27 27L27 29L28 29L28 27L29 27L29 26L28 26L28 25L27 25L27 26L26 26L26 25L25 25L25 19L26 19L26 18L25 18L25 19L24 19L24 20L23 20L23 18L24 18L24 17L22 17L22 16L23 16L23 15L22 15L22 13L24 13L24 11L23 11L23 9L25 9L25 13L26 13L26 15L24 15L24 16L25 16L25 17L26 17L26 15L27 15L27 17L28 17L28 18L27 18L27 20L26 20L26 22L27 22L27 23L26 23L26 24L29 24L29 23L28 23L28 22L29 22L29 21L27 21L27 20L29 20L29 17L28 17L28 15L29 15L29 14L27 14L27 13L29 13L29 12L28 12L28 10L29 10L29 9L28 9L28 8L26 8L26 9L25 9L25 8L22 8L22 9L20 9L20 10L19 10L19 9L17 9L17 8L19 8L19 6L20 6L20 7L21 7L21 6L20 6L20 5L18 5L18 7L17 7L17 6L16 6L16 5L17 5L17 4L15 4L15 2L16 2L16 3L18 3L18 4L20 4L20 2L21 2L21 1L20 1L20 0L19 0L19 1L17 1L17 2L16 2L16 0L14 0L14 1L13 1L13 0L12 0L12 1L11 1L11 2L9 2L9 1L10 1L10 0ZM14 1L14 2L13 2L13 3L12 3L12 4L9 4L9 5L10 5L10 6L9 6L9 7L10 7L10 8L8 8L8 10L7 10L7 11L6 11L6 12L4 12L4 13L3 13L3 12L2 12L2 11L1 11L1 12L2 12L2 13L3 13L3 14L2 14L2 15L1 15L1 16L3 16L3 15L4 15L4 17L5 17L5 18L4 18L4 19L6 19L6 20L7 20L7 19L6 19L6 18L9 18L9 17L10 17L10 14L8 14L8 13L12 13L12 12L13 12L13 11L14 11L14 12L16 12L16 9L15 9L15 8L17 8L17 7L16 7L16 6L15 6L15 8L14 8L14 6L13 6L13 4L14 4L14 2L15 2L15 1ZM19 1L19 2L20 2L20 1ZM11 5L11 6L10 6L10 7L11 7L11 6L12 6L12 8L13 8L13 9L14 9L14 8L13 8L13 6L12 6L12 5ZM10 8L10 10L9 10L9 11L11 11L11 10L12 10L12 9L11 9L11 8ZM3 9L3 11L5 11L5 10L4 10L4 9ZM26 9L26 10L28 10L28 9ZM7 11L7 12L6 12L6 13L5 13L5 14L6 14L6 15L7 15L7 14L6 14L6 13L7 13L7 12L8 12L8 11ZM17 11L17 12L18 12L18 14L19 14L19 13L20 13L20 12L21 12L21 13L22 13L22 11ZM26 12L26 13L27 13L27 12ZM13 13L13 14L14 14L14 13ZM15 13L15 15L14 15L14 16L12 16L12 14L11 14L11 16L12 16L12 17L11 17L11 19L12 19L12 20L14 20L14 19L13 19L13 17L14 17L14 18L15 18L15 19L16 19L16 16L17 16L17 15L16 15L16 14L17 14L17 13ZM8 15L8 16L9 16L9 15ZM6 16L6 17L7 17L7 16ZM14 16L14 17L15 17L15 16ZM2 17L2 18L3 18L3 17ZM21 17L21 18L22 18L22 17ZM9 19L9 20L8 20L8 21L10 21L10 22L11 22L11 20L10 20L10 19ZM0 20L0 21L1 21L1 20ZM16 21L16 23L17 23L17 22L18 22L18 21ZM21 21L21 24L24 24L24 21ZM22 22L22 23L23 23L23 22ZM10 23L10 25L9 25L9 26L10 26L10 27L9 27L9 28L10 28L10 27L11 27L11 23ZM18 23L18 24L16 24L16 25L18 25L18 24L19 24L19 23ZM27 26L27 27L28 27L28 26ZM20 27L20 29L22 29L22 28L21 28L21 27ZM23 28L23 29L26 29L26 28ZM0 0L0 7L7 7L7 0ZM1 1L1 6L6 6L6 1ZM2 2L2 5L5 5L5 2ZM22 0L22 7L29 7L29 0ZM23 1L23 6L28 6L28 1ZM24 2L24 5L27 5L27 2ZM0 22L0 29L7 29L7 22ZM1 23L1 28L6 28L6 23ZM2 24L2 27L5 27L5 24Z" fill="#000000"/></g></g></svg>
