<?xml version="1.0" encoding="UTF-8"?>
<svg xmlns="http://www.w3.org/2000/svg" version="1.1" width="100" height="100" viewBox="0 0 100 100"><rect x="0" y="0" width="100" height="100" fill="#ffffff"/><g transform="scale(3.448)"><g transform="translate(0,0)"><path fill-rule="evenodd" d="M9 0L9 1L10 1L10 2L8 2L8 3L9 3L9 4L10 4L10 5L9 5L9 6L8 6L8 8L4 8L4 9L3 9L3 8L0 8L0 9L1 9L1 10L0 10L0 11L1 11L1 14L0 14L0 15L2 15L2 16L1 16L1 17L2 17L2 16L3 16L3 18L2 18L2 19L1 19L1 18L0 18L0 19L1 19L1 20L0 20L0 21L1 21L1 20L2 20L2 19L4 19L4 20L3 20L3 21L4 21L4 20L5 20L5 21L7 21L7 20L8 20L8 25L9 25L9 23L12 23L12 24L10 24L10 28L9 28L9 26L8 26L8 29L11 29L11 28L12 28L12 29L13 29L13 28L12 28L12 27L11 27L11 26L12 26L12 24L14 24L14 25L15 25L15 23L14 23L14 22L15 22L15 20L17 20L17 21L16 21L16 22L18 22L18 20L20 20L20 22L19 22L19 23L17 23L17 24L16 24L16 26L17 26L17 25L18 25L18 24L19 24L19 23L20 23L20 28L19 28L19 29L25 29L25 28L21 28L21 25L23 25L23 27L25 27L25 23L26 23L26 22L27 22L27 24L29 24L29 21L26 21L26 22L25 22L25 20L26 20L26 18L27 18L27 20L28 20L28 19L29 19L29 16L28 16L28 15L29 15L29 12L28 12L28 11L29 11L29 9L28 9L28 10L26 10L26 9L27 9L27 8L26 8L26 9L25 9L25 10L26 10L26 11L25 11L25 14L27 14L27 17L26 17L26 18L25 18L25 19L24 19L24 20L22 20L22 19L23 19L23 15L24 15L24 16L26 16L26 15L24 15L24 14L23 14L23 13L24 13L24 12L23 12L23 11L22 11L22 10L23 10L23 8L20 8L20 7L21 7L21 5L20 5L20 3L21 3L21 1L20 1L20 0L19 0L19 1L16 1L16 0L14 0L14 1L15 1L15 2L16 2L16 3L17 3L17 2L18 2L18 4L19 4L19 5L17 5L17 6L16 6L16 4L15 4L15 3L14 3L14 5L13 5L13 6L12 6L12 8L11 8L11 6L10 6L10 5L11 5L11 4L12 4L12 3L13 3L13 0L12 0L12 1L10 1L10 0ZM11 2L11 3L12 3L12 2ZM14 5L14 6L13 6L13 7L14 7L14 6L15 6L15 8L16 8L16 6L15 6L15 5ZM9 6L9 7L10 7L10 6ZM17 6L17 7L18 7L18 6ZM19 6L19 7L20 7L20 6ZM9 8L9 10L8 10L8 9L4 9L4 11L3 11L3 9L2 9L2 10L1 10L1 11L2 11L2 12L3 12L3 13L2 13L2 15L3 15L3 16L4 16L4 19L5 19L5 16L4 16L4 14L5 14L5 15L6 15L6 16L8 16L8 14L9 14L9 15L10 15L10 14L11 14L11 13L12 13L12 12L13 12L13 10L14 10L14 11L15 11L15 12L16 12L16 11L17 11L17 10L16 10L16 9L13 9L13 8L12 8L12 10L10 10L10 8ZM18 8L18 9L19 9L19 11L18 11L18 14L17 14L17 15L16 15L16 13L15 13L15 14L13 14L13 15L15 15L15 18L13 18L13 16L12 16L12 15L11 15L11 16L10 16L10 18L9 18L9 17L6 17L6 18L7 18L7 19L6 19L6 20L7 20L7 19L8 19L8 20L10 20L10 21L9 21L9 22L10 22L10 21L12 21L12 20L13 20L13 19L16 19L16 17L17 17L17 19L20 19L20 18L22 18L22 17L17 17L17 15L18 15L18 14L19 14L19 16L20 16L20 15L21 15L21 14L20 14L20 8ZM5 10L5 12L4 12L4 13L5 13L5 12L6 12L6 13L7 13L7 14L6 14L6 15L7 15L7 14L8 14L8 13L9 13L9 11L10 11L10 10L9 10L9 11L8 11L8 10ZM6 11L6 12L7 12L7 13L8 13L8 11ZM11 11L11 12L12 12L12 11ZM21 11L21 13L22 13L22 11ZM26 11L26 13L27 13L27 14L28 14L28 13L27 13L27 11ZM22 14L22 15L23 15L23 14ZM11 16L11 18L10 18L10 19L11 19L11 20L12 20L12 19L11 19L11 18L12 18L12 16ZM27 17L27 18L28 18L28 17ZM21 21L21 24L24 24L24 21ZM22 22L22 23L23 23L23 22ZM27 25L27 26L28 26L28 27L27 27L27 29L29 29L29 28L28 28L28 27L29 27L29 25ZM13 26L13 27L14 27L14 26ZM15 27L15 28L16 28L16 29L18 29L18 27ZM0 0L0 7L7 7L7 0ZM1 1L1 6L6 6L6 1ZM2 2L2 5L5 5L5 2ZM22 0L22 7L29 7L29 0ZM23 1L23 6L28 6L28 1ZM24 2L24 5L27 5L27 2ZM0 22L0 29L7 29L7 22ZM1 23L1 28L6 28L6 23ZM2 24L2 27L5 27L5 24Z" fill="#000000"/></g></g></svg>
