<?xml version="1.0" encoding="UTF-8"?>
<svg xmlns="http://www.w3.org/2000/svg" version="1.1" width="100" height="100" viewBox="0 0 100 100"><rect x="0" y="0" width="100" height="100" fill="#ffffff"/><g transform="scale(3.03)"><g transform="translate(0,0)"><path fill-rule="evenodd" d="M9 0L9 1L8 1L8 2L9 2L9 3L8 3L8 4L10 4L10 7L11 7L11 4L12 4L12 5L13 5L13 6L12 6L12 9L13 9L13 8L14 8L14 9L18 9L18 10L21 10L21 12L20 12L20 11L19 11L19 12L20 12L20 13L18 13L18 12L16 12L16 11L17 11L17 10L15 10L15 11L14 11L14 12L15 12L15 13L12 13L12 11L13 11L13 10L11 10L11 11L10 11L10 9L11 9L11 8L6 8L6 9L9 9L9 10L6 10L6 11L7 11L7 12L4 12L4 10L3 10L3 9L5 9L5 8L0 8L0 10L1 10L1 9L2 9L2 10L3 10L3 13L2 13L2 14L3 14L3 15L2 15L2 16L0 16L0 17L2 17L2 18L3 18L3 19L1 19L1 18L0 18L0 19L1 19L1 20L2 20L2 21L4 21L4 22L3 22L3 23L2 23L2 24L3 24L3 23L4 23L4 24L5 24L5 23L7 23L7 24L6 24L6 25L7 25L7 24L8 24L8 23L9 23L9 24L10 24L10 23L11 23L11 22L10 22L10 23L9 23L9 21L8 21L8 20L9 20L9 19L10 19L10 18L9 18L9 17L11 17L11 13L12 13L12 14L13 14L13 15L12 15L12 17L13 17L13 16L14 16L14 17L18 17L18 16L17 16L17 15L19 15L19 14L20 14L20 17L19 17L19 18L21 18L21 19L20 19L20 21L19 21L19 22L15 22L15 21L12 21L12 19L13 19L13 18L11 18L11 20L10 20L10 21L12 21L12 22L13 22L13 23L12 23L12 25L13 25L13 24L14 24L14 25L16 25L16 26L15 26L15 27L14 27L14 28L15 28L15 29L12 29L12 27L13 27L13 26L11 26L11 25L8 25L8 27L9 27L9 28L8 28L8 33L11 33L11 32L9 32L9 30L10 30L10 31L11 31L11 29L12 29L12 30L13 30L13 31L12 31L12 33L13 33L13 32L14 32L14 33L15 33L15 32L16 32L16 31L18 31L18 32L17 32L17 33L18 33L18 32L22 32L22 33L25 33L25 32L26 32L26 33L28 33L28 32L27 32L27 30L29 30L29 32L31 32L31 33L32 33L32 32L31 32L31 31L30 31L30 30L33 30L33 27L32 27L32 26L33 26L33 24L32 24L32 26L31 26L31 27L30 27L30 25L29 25L29 24L31 24L31 23L32 23L32 22L33 22L33 21L32 21L32 20L31 20L31 19L32 19L32 18L33 18L33 17L32 17L32 16L31 16L31 15L32 15L32 14L33 14L33 13L31 13L31 15L30 15L30 13L29 13L29 12L28 12L28 11L29 11L29 10L28 10L28 11L27 11L27 12L28 12L28 13L29 13L29 14L28 14L28 16L27 16L27 13L26 13L26 14L25 14L25 13L23 13L23 10L24 10L24 12L25 12L25 11L26 11L26 10L27 10L27 9L28 9L28 8L27 8L27 9L26 9L26 8L25 8L25 4L23 4L23 3L25 3L25 0L23 0L23 1L22 1L22 2L21 2L21 0L18 0L18 1L20 1L20 3L19 3L19 4L18 4L18 3L17 3L17 2L16 2L16 3L17 3L17 5L20 5L20 7L21 7L21 8L22 8L22 9L18 9L18 8L19 8L19 6L18 6L18 8L16 8L16 7L17 7L17 6L16 6L16 4L12 4L12 2L13 2L13 1L11 1L11 2L10 2L10 0ZM15 0L15 1L17 1L17 0ZM23 1L23 2L24 2L24 1ZM14 2L14 3L15 3L15 2ZM10 3L10 4L11 4L11 3ZM20 3L20 5L21 5L21 4L22 4L22 3ZM8 5L8 7L9 7L9 5ZM22 5L22 6L21 6L21 7L22 7L22 8L23 8L23 9L25 9L25 8L23 8L23 7L24 7L24 5ZM13 6L13 7L14 7L14 8L15 8L15 7L16 7L16 6L15 6L15 7L14 7L14 6ZM22 6L22 7L23 7L23 6ZM29 8L29 9L30 9L30 8ZM31 8L31 10L33 10L33 9L32 9L32 8ZM1 11L1 12L0 12L0 14L1 14L1 12L2 12L2 11ZM8 11L8 12L7 12L7 13L6 13L6 14L5 14L5 15L6 15L6 16L4 16L4 19L3 19L3 20L4 20L4 19L5 19L5 20L7 20L7 19L5 19L5 18L8 18L8 17L6 17L6 16L7 16L7 15L6 15L6 14L7 14L7 13L8 13L8 14L10 14L10 13L11 13L11 12L10 12L10 13L8 13L8 12L9 12L9 11ZM30 11L30 12L31 12L31 11ZM21 12L21 13L22 13L22 14L21 14L21 15L22 15L22 16L21 16L21 18L23 18L23 19L22 19L22 20L21 20L21 22L22 22L22 23L24 23L24 24L23 24L23 25L22 25L22 24L21 24L21 23L20 23L20 22L19 22L19 23L20 23L20 24L18 24L18 23L16 23L16 25L17 25L17 24L18 24L18 25L22 25L22 26L21 26L21 27L20 27L20 26L18 26L18 27L15 27L15 28L16 28L16 29L15 29L15 30L16 30L16 29L17 29L17 28L18 28L18 29L21 29L21 30L18 30L18 31L22 31L22 30L23 30L23 29L24 29L24 31L23 31L23 32L25 32L25 31L26 31L26 30L27 30L27 29L26 29L26 30L25 30L25 29L24 29L24 28L21 28L21 27L23 27L23 25L24 25L24 24L25 24L25 23L24 23L24 22L26 22L26 24L28 24L28 23L30 23L30 22L31 22L31 20L29 20L29 21L27 21L27 20L26 20L26 19L27 19L27 18L28 18L28 19L29 19L29 17L30 17L30 19L31 19L31 16L30 16L30 15L29 15L29 17L27 17L27 16L26 16L26 17L25 17L25 16L23 16L23 15L24 15L24 14L23 14L23 13L22 13L22 12ZM15 13L15 14L16 14L16 15L14 15L14 16L16 16L16 15L17 15L17 14L18 14L18 13ZM22 16L22 17L23 17L23 18L25 18L25 19L26 19L26 18L27 18L27 17L26 17L26 18L25 18L25 17L23 17L23 16ZM15 18L15 19L14 19L14 20L15 20L15 19L16 19L16 20L17 20L17 21L18 21L18 20L19 20L19 19L18 19L18 20L17 20L17 18ZM23 19L23 20L22 20L22 21L23 21L23 22L24 22L24 21L26 21L26 22L27 22L27 23L28 23L28 22L27 22L27 21L26 21L26 20L24 20L24 19ZM0 21L0 25L1 25L1 21ZM5 21L5 22L7 22L7 21ZM29 21L29 22L30 22L30 21ZM14 23L14 24L15 24L15 23ZM25 25L25 28L28 28L28 25ZM10 26L10 28L9 28L9 29L10 29L10 28L11 28L11 26ZM26 26L26 27L27 27L27 26ZM31 27L31 28L29 28L29 30L30 30L30 29L32 29L32 27ZM14 31L14 32L15 32L15 31ZM0 0L0 7L7 7L7 0ZM1 1L1 6L6 6L6 1ZM2 2L2 5L5 5L5 2ZM26 0L26 7L33 7L33 0ZM27 1L27 6L32 6L32 1ZM28 2L28 5L31 5L31 2ZM0 26L0 33L7 33L7 26ZM1 27L1 32L6 32L6 27ZM2 28L2 31L5 31L5 28Z" fill="#000000"/></g></g></svg>
