<?xml version="1.0" encoding="UTF-8"?>
<svg xmlns="http://www.w3.org/2000/svg" version="1.1" width="100" height="100" viewBox="0 0 100 100"><rect x="0" y="0" width="100" height="100" fill="#ffffff"/><g transform="scale(3.448)"><g transform="translate(0,0)"><path fill-rule="evenodd" d="M8 0L8 1L9 1L9 2L10 2L10 3L11 3L11 1L14 1L14 2L12 2L12 4L11 4L11 5L10 5L10 4L9 4L9 5L10 5L10 8L9 8L9 6L8 6L8 8L9 8L9 9L8 9L8 11L7 11L7 10L6 10L6 9L7 9L7 8L6 8L6 9L5 9L5 8L3 8L3 9L2 9L2 8L0 8L0 10L3 10L3 12L2 12L2 11L0 11L0 13L1 13L1 12L2 12L2 14L1 14L1 15L2 15L2 16L0 16L0 21L3 21L3 20L4 20L4 21L5 21L5 20L4 20L4 19L3 19L3 20L2 20L2 18L5 18L5 19L8 19L8 22L10 22L10 24L8 24L8 26L9 26L9 27L8 27L8 29L10 29L10 28L11 28L11 29L13 29L13 28L15 28L15 29L16 29L16 28L15 28L15 27L16 27L16 26L19 26L19 27L18 27L18 28L19 28L19 29L21 29L21 28L24 28L24 29L25 29L25 28L27 28L27 27L28 27L28 28L29 28L29 25L28 25L28 24L27 24L27 25L26 25L26 21L28 21L28 20L27 20L27 19L25 19L25 20L24 20L24 18L28 18L28 19L29 19L29 18L28 18L28 17L24 17L24 14L25 14L25 15L26 15L26 16L27 16L27 14L28 14L28 16L29 16L29 11L28 11L28 13L27 13L27 14L26 14L26 13L23 13L23 12L22 12L22 11L24 11L24 12L25 12L25 11L24 11L24 10L25 10L25 9L23 9L23 8L22 8L22 9L23 9L23 10L22 10L22 11L21 11L21 10L20 10L20 8L21 8L21 5L20 5L20 4L21 4L21 3L20 3L20 4L19 4L19 5L20 5L20 7L19 7L19 6L18 6L18 3L19 3L19 2L20 2L20 1L19 1L19 2L18 2L18 3L17 3L17 1L18 1L18 0L17 0L17 1L16 1L16 2L15 2L15 0L11 0L11 1L9 1L9 0ZM14 3L14 4L12 4L12 5L11 5L11 7L12 7L12 9L10 9L10 10L9 10L9 11L8 11L8 13L9 13L9 11L10 11L10 10L12 10L12 11L13 11L13 13L11 13L11 12L10 12L10 15L6 15L6 14L7 14L7 13L5 13L5 15L6 15L6 16L11 16L11 17L10 17L10 18L9 18L9 17L5 17L5 16L4 16L4 17L5 17L5 18L9 18L9 20L11 20L11 25L10 25L10 27L9 27L9 28L10 28L10 27L11 27L11 28L12 28L12 27L14 27L14 25L13 25L13 24L15 24L15 23L12 23L12 22L15 22L15 20L16 20L16 22L18 22L18 24L17 24L17 25L19 25L19 26L20 26L20 28L21 28L21 25L19 25L19 22L18 22L18 21L19 21L19 18L18 18L18 16L19 16L19 15L18 15L18 13L19 13L19 14L21 14L21 15L20 15L20 16L21 16L21 17L20 17L20 18L21 18L21 19L20 19L20 20L23 20L23 19L22 19L22 18L24 18L24 17L23 17L23 14L22 14L22 13L19 13L19 12L17 12L17 11L18 11L18 10L19 10L19 11L20 11L20 10L19 10L19 7L18 7L18 6L17 6L17 8L18 8L18 9L16 9L16 8L15 8L15 7L16 7L16 4L15 4L15 3ZM14 4L14 5L15 5L15 4ZM12 5L12 7L13 7L13 8L14 8L14 7L15 7L15 6L14 6L14 7L13 7L13 5ZM28 8L28 9L26 9L26 11L27 11L27 10L28 10L28 9L29 9L29 8ZM12 9L12 10L13 10L13 11L14 11L14 13L13 13L13 14L11 14L11 16L12 16L12 15L15 15L15 16L13 16L13 17L11 17L11 18L10 18L10 19L12 19L12 21L13 21L13 20L15 20L15 19L16 19L16 20L17 20L17 21L18 21L18 20L17 20L17 19L18 19L18 18L16 18L16 17L17 17L17 12L16 12L16 11L17 11L17 10L16 10L16 9ZM4 10L4 11L5 11L5 12L7 12L7 11L6 11L6 10ZM14 10L14 11L15 11L15 10ZM15 12L15 13L14 13L14 14L15 14L15 13L16 13L16 12ZM3 14L3 15L4 15L4 14ZM21 17L21 18L22 18L22 17ZM12 18L12 19L13 19L13 18ZM6 20L6 21L7 21L7 20ZM21 21L21 24L24 24L24 21ZM22 22L22 23L23 23L23 22ZM12 25L12 26L13 26L13 25ZM22 25L22 27L23 27L23 26L26 26L26 25ZM27 25L27 26L28 26L28 25ZM0 0L0 7L7 7L7 0ZM1 1L1 6L6 6L6 1ZM2 2L2 5L5 5L5 2ZM22 0L22 7L29 7L29 0ZM23 1L23 6L28 6L28 1ZM24 2L24 5L27 5L27 2ZM0 22L0 29L7 29L7 22ZM1 23L1 28L6 28L6 23ZM2 24L2 27L5 27L5 24Z" fill="#000000"/></g></g></svg>
