<?xml version="1.0" encoding="UTF-8"?>
<svg xmlns="http://www.w3.org/2000/svg" version="1.1" width="100" height="100" viewBox="0 0 100 100"><rect x="0" y="0" width="100" height="100" fill="#ffffff"/><g transform="scale(3.03)"><g transform="translate(0,0)"><path fill-rule="evenodd" d="M9 0L9 1L8 1L8 2L9 2L9 3L8 3L8 4L10 4L10 7L11 7L11 4L12 4L12 5L13 5L13 6L12 6L12 9L13 9L13 8L14 8L14 9L15 9L15 10L17 10L17 11L16 11L16 13L12 13L12 11L13 11L13 10L11 10L11 11L10 11L10 9L11 9L11 8L6 8L6 9L5 9L5 8L0 8L0 9L3 9L3 10L1 10L1 11L2 11L2 12L1 12L1 13L0 13L0 15L1 15L1 16L0 16L0 18L1 18L1 19L0 19L0 25L1 25L1 22L2 22L2 23L3 23L3 22L4 22L4 20L5 20L5 19L8 19L8 20L6 20L6 21L5 21L5 22L6 22L6 23L4 23L4 24L2 24L2 25L4 25L4 24L6 24L6 25L8 25L8 27L9 27L9 28L8 28L8 33L9 33L9 30L10 30L10 31L11 31L11 29L12 29L12 30L13 30L13 31L12 31L12 33L13 33L13 32L14 32L14 33L15 33L15 32L16 32L16 33L19 33L19 32L16 32L16 31L18 31L18 30L20 30L20 33L21 33L21 32L22 32L22 33L25 33L25 32L26 32L26 33L28 33L28 32L27 32L27 30L29 30L29 32L31 32L31 33L32 33L32 32L31 32L31 31L30 31L30 30L33 30L33 29L32 29L32 28L33 28L33 27L32 27L32 26L33 26L33 24L32 24L32 26L31 26L31 27L30 27L30 25L29 25L29 24L31 24L31 23L32 23L32 22L33 22L33 21L32 21L32 20L31 20L31 19L32 19L32 18L33 18L33 17L32 17L32 16L31 16L31 15L32 15L32 14L33 14L33 13L31 13L31 15L30 15L30 13L29 13L29 12L28 12L28 11L29 11L29 10L28 10L28 11L27 11L27 12L28 12L28 13L29 13L29 14L28 14L28 16L27 16L27 13L26 13L26 14L25 14L25 16L24 16L24 15L23 15L23 14L24 14L24 13L23 13L23 14L22 14L22 15L21 15L21 13L20 13L20 12L23 12L23 11L20 11L20 12L19 12L19 13L18 13L18 12L17 12L17 11L18 11L18 10L22 10L22 9L23 9L23 10L24 10L24 12L25 12L25 11L26 11L26 10L27 10L27 9L28 9L28 8L27 8L27 9L26 9L26 8L25 8L25 10L24 10L24 9L23 9L23 6L22 6L22 5L21 5L21 4L19 4L19 5L16 5L16 4L18 4L18 3L20 3L20 2L21 2L21 3L22 3L22 4L23 4L23 5L24 5L24 4L25 4L25 1L24 1L24 0L23 0L23 1L21 1L21 0L19 0L19 1L20 1L20 2L18 2L18 3L17 3L17 2L16 2L16 4L12 4L12 2L13 2L13 1L11 1L11 2L10 2L10 0ZM15 0L15 1L17 1L17 0ZM23 1L23 2L22 2L22 3L23 3L23 4L24 4L24 3L23 3L23 2L24 2L24 1ZM14 2L14 3L15 3L15 2ZM10 3L10 4L11 4L11 3ZM8 5L8 7L9 7L9 5ZM19 5L19 8L18 8L18 6L17 6L17 7L16 7L16 6L15 6L15 7L14 7L14 6L13 6L13 7L14 7L14 8L15 8L15 7L16 7L16 9L17 9L17 8L18 8L18 9L22 9L22 8L20 8L20 5ZM21 6L21 7L22 7L22 6ZM24 6L24 7L25 7L25 6ZM29 8L29 9L30 9L30 8ZM31 8L31 10L33 10L33 9L32 9L32 8ZM6 9L6 10L7 10L7 11L6 11L6 12L5 12L5 13L4 13L4 12L2 12L2 13L1 13L1 14L2 14L2 15L3 15L3 16L1 16L1 17L2 17L2 20L1 20L1 21L2 21L2 20L4 20L4 19L5 19L5 13L6 13L6 14L7 14L7 15L6 15L6 16L7 16L7 17L6 17L6 18L8 18L8 19L9 19L9 18L10 18L10 17L9 17L9 16L10 16L10 14L9 14L9 12L8 12L8 11L9 11L9 10L8 10L8 9ZM3 10L3 11L5 11L5 10ZM14 11L14 12L15 12L15 11ZM30 11L30 12L31 12L31 11ZM6 12L6 13L7 13L7 14L8 14L8 12ZM10 12L10 13L11 13L11 18L13 18L13 19L12 19L12 21L11 21L11 24L10 24L10 22L9 22L9 25L10 25L10 27L11 27L11 26L13 26L13 27L12 27L12 29L15 29L15 30L17 30L17 29L15 29L15 28L14 28L14 27L15 27L15 26L16 26L16 28L19 28L19 29L20 29L20 28L21 28L21 29L22 29L22 28L21 28L21 27L23 27L23 25L24 25L24 24L25 24L25 23L24 23L24 22L26 22L26 24L28 24L28 23L30 23L30 22L31 22L31 20L29 20L29 21L27 21L27 20L26 20L26 19L27 19L27 18L28 18L28 19L29 19L29 17L30 17L30 19L31 19L31 16L30 16L30 15L29 15L29 17L27 17L27 16L26 16L26 17L25 17L25 18L23 18L23 17L22 17L22 16L20 16L20 14L18 14L18 15L16 15L16 17L17 17L17 16L18 16L18 17L22 17L22 18L21 18L21 19L22 19L22 20L20 20L20 18L19 18L19 19L18 19L18 18L15 18L15 17L14 17L14 16L15 16L15 15L14 15L14 16L13 16L13 17L12 17L12 15L13 15L13 14L12 14L12 13L11 13L11 12ZM2 13L2 14L3 14L3 15L4 15L4 13ZM16 13L16 14L17 14L17 13ZM7 15L7 16L9 16L9 15ZM18 15L18 16L19 16L19 15ZM26 17L26 18L25 18L25 19L26 19L26 18L27 18L27 17ZM3 18L3 19L4 19L4 18ZM22 18L22 19L23 19L23 20L22 20L22 21L21 21L21 22L20 22L20 20L19 20L19 21L18 21L18 20L17 20L17 19L16 19L16 20L17 20L17 21L18 21L18 22L16 22L16 21L12 21L12 22L13 22L13 23L12 23L12 25L13 25L13 24L14 24L14 25L18 25L18 27L19 27L19 28L20 28L20 27L19 27L19 26L22 26L22 25L23 25L23 24L24 24L24 23L22 23L22 21L23 21L23 22L24 22L24 21L26 21L26 22L27 22L27 23L28 23L28 22L27 22L27 21L26 21L26 20L24 20L24 19L23 19L23 18ZM10 19L10 20L8 20L8 21L6 21L6 22L8 22L8 21L10 21L10 20L11 20L11 19ZM14 19L14 20L15 20L15 19ZM29 21L29 22L30 22L30 21ZM19 22L19 23L16 23L16 24L18 24L18 25L22 25L22 24L21 24L21 23L20 23L20 22ZM6 23L6 24L7 24L7 23ZM14 23L14 24L15 24L15 23ZM25 25L25 28L28 28L28 25ZM26 26L26 27L27 27L27 26ZM31 27L31 28L29 28L29 30L30 30L30 29L31 29L31 28L32 28L32 27ZM9 28L9 29L10 29L10 28ZM23 28L23 29L24 29L24 31L22 31L22 32L25 32L25 31L26 31L26 30L27 30L27 29L26 29L26 30L25 30L25 29L24 29L24 28ZM14 31L14 32L15 32L15 31ZM10 32L10 33L11 33L11 32ZM0 0L0 7L7 7L7 0ZM1 1L1 6L6 6L6 1ZM2 2L2 5L5 5L5 2ZM26 0L26 7L33 7L33 0ZM27 1L27 6L32 6L32 1ZM28 2L28 5L31 5L31 2ZM0 26L0 33L7 33L7 26ZM1 27L1 32L6 32L6 27ZM2 28L2 31L5 31L5 28Z" fill="#000000"/></g></g></svg>
