<?xml version="1.0" encoding="UTF-8"?>
<svg xmlns="http://www.w3.org/2000/svg" version="1.1" width="100" height="100" viewBox="0 0 100 100"><rect x="0" y="0" width="100" height="100" fill="#ffffff"/><g transform="scale(3.448)"><g transform="translate(0,0)"><path fill-rule="evenodd" d="M9 0L9 1L8 1L8 2L9 2L9 3L8 3L8 4L10 4L10 7L11 7L11 4L12 4L12 5L13 5L13 4L15 4L15 3L16 3L16 2L17 2L17 0L16 0L16 1L15 1L15 2L14 2L14 1L11 1L11 2L10 2L10 0ZM19 0L19 1L20 1L20 2L18 2L18 3L17 3L17 4L16 4L16 5L15 5L15 6L14 6L14 8L13 8L13 6L12 6L12 9L13 9L13 10L11 10L11 11L10 11L10 9L11 9L11 8L6 8L6 9L5 9L5 8L0 8L0 10L2 10L2 11L3 11L3 12L1 12L1 11L0 11L0 15L2 15L2 18L3 18L3 17L4 17L4 16L5 16L5 17L7 17L7 16L5 16L5 14L6 14L6 15L8 15L8 18L6 18L6 19L5 19L5 18L4 18L4 19L3 19L3 20L2 20L2 21L7 21L7 20L8 20L8 18L9 18L9 14L11 14L11 13L12 13L12 14L13 14L13 15L12 15L12 17L14 17L14 18L15 18L15 21L14 21L14 20L13 20L13 21L12 21L12 19L13 19L13 18L11 18L11 21L10 21L10 19L9 19L9 21L8 21L8 23L10 23L10 26L9 26L9 24L8 24L8 29L10 29L10 26L11 26L11 29L13 29L13 28L12 28L12 27L13 27L13 26L11 26L11 23L10 23L10 22L11 22L11 21L12 21L12 22L13 22L13 21L14 21L14 22L15 22L15 23L14 23L14 24L13 24L13 23L12 23L12 25L14 25L14 26L15 26L15 27L14 27L14 28L15 28L15 29L16 29L16 28L17 28L17 29L18 29L18 28L19 28L19 29L20 29L20 28L21 28L21 27L23 27L23 29L25 29L25 28L26 28L26 29L27 29L27 28L28 28L28 26L29 26L29 23L28 23L28 24L26 24L26 23L27 23L27 22L29 22L29 20L28 20L28 19L27 19L27 16L28 16L28 15L27 15L27 12L28 12L28 11L27 11L27 12L25 12L25 11L23 11L23 10L25 10L25 9L26 9L26 8L25 8L25 9L24 9L24 8L23 8L23 9L22 9L22 8L21 8L21 9L19 9L19 10L17 10L17 9L18 9L18 8L17 8L17 6L16 6L16 5L17 5L17 4L18 4L18 3L20 3L20 2L21 2L21 0ZM12 2L12 4L13 4L13 3L14 3L14 2ZM10 3L10 4L11 4L11 3ZM19 4L19 5L20 5L20 7L21 7L21 4ZM8 5L8 7L9 7L9 5ZM15 6L15 8L14 8L14 10L16 10L16 9L17 9L17 8L16 8L16 6ZM18 6L18 7L19 7L19 6ZM27 8L27 9L28 9L28 10L29 10L29 9L28 9L28 8ZM4 9L4 10L3 10L3 11L6 11L6 12L4 12L4 13L6 13L6 14L7 14L7 13L6 13L6 12L8 12L8 11L9 11L9 9L8 9L8 10L7 10L7 9L6 9L6 10L5 10L5 9ZM6 10L6 11L7 11L7 10ZM19 10L19 11L21 11L21 12L18 12L18 11L17 11L17 12L16 12L16 11L15 11L15 12L14 12L14 11L12 11L12 13L13 13L13 14L14 14L14 15L13 15L13 16L14 16L14 17L15 17L15 18L16 18L16 19L17 19L17 20L18 20L18 21L17 21L17 23L15 23L15 24L14 24L14 25L15 25L15 26L16 26L16 25L17 25L17 24L18 24L18 25L20 25L20 24L19 24L19 22L18 22L18 21L20 21L20 19L22 19L22 20L23 20L23 19L24 19L24 20L25 20L25 21L26 21L26 20L27 20L27 19L25 19L25 18L22 18L22 17L26 17L26 16L27 16L27 15L26 15L26 13L25 13L25 12L24 12L24 13L25 13L25 14L24 14L24 16L20 16L20 18L16 18L16 17L15 17L15 16L19 16L19 15L20 15L20 14L19 14L19 15L18 15L18 13L21 13L21 12L22 12L22 13L23 13L23 12L22 12L22 10ZM10 12L10 13L11 13L11 12ZM13 12L13 13L14 13L14 14L15 14L15 15L14 15L14 16L15 16L15 15L16 15L16 14L17 14L17 13L18 13L18 12L17 12L17 13L16 13L16 14L15 14L15 13L14 13L14 12ZM2 13L2 15L3 15L3 16L4 16L4 14L3 14L3 13ZM28 13L28 14L29 14L29 13ZM21 14L21 15L22 15L22 14ZM10 15L10 16L11 16L11 15ZM0 17L0 21L1 21L1 17ZM28 17L28 18L29 18L29 17ZM6 19L6 20L7 20L7 19ZM15 21L15 22L16 22L16 21ZM21 21L21 24L24 24L24 21ZM22 22L22 23L23 23L23 22ZM15 24L15 25L16 25L16 24ZM25 24L25 25L21 25L21 26L17 26L17 28L18 28L18 27L21 27L21 26L25 26L25 27L26 27L26 28L27 28L27 27L26 27L26 26L27 26L27 25L26 25L26 24ZM25 25L25 26L26 26L26 25ZM0 0L0 7L7 7L7 0ZM1 1L1 6L6 6L6 1ZM2 2L2 5L5 5L5 2ZM22 0L22 7L29 7L29 0ZM23 1L23 6L28 6L28 1ZM24 2L24 5L27 5L27 2ZM0 22L0 29L7 29L7 22ZM1 23L1 28L6 28L6 23ZM2 24L2 27L5 27L5 24Z" fill="#000000"/></g></g></svg>
